<svg width="10" height="11" viewBox="0 0 10 11" fill="none" xmlns="http://www.w3.org/2000/svg">
<path d="M5.11402 2.66637L5.43802 3.42419C5.45999 3.49009 5.52039 3.52853 5.5808 3.53402L6.40452 3.6109C6.58025 3.62737 6.64614 3.84154 6.51984 3.95686L5.8993 4.50052C5.84988 4.54445 5.82791 4.61035 5.84439 4.67075L6.02561 5.478C6.06405 5.64823 5.88283 5.78003 5.72907 5.69216L5.02067 5.26932C4.96575 5.23637 4.89437 5.23637 4.83945 5.26932L4.13105 5.69216C3.98278 5.78003 3.79607 5.64823 3.83451 5.478L4.01573 4.67075C4.03221 4.61035 4.01024 4.54445 3.96082 4.50052L3.34028 3.95686C3.20849 3.84154 3.27988 3.62737 3.4556 3.6109L4.27932 3.53402C4.34522 3.52853 4.40013 3.49009 4.42759 3.42968L4.75159 2.67186C4.81748 2.50712 5.04263 2.50712 5.11402 2.66637Z" stroke="#F0C932" stroke-width="0.549146" stroke-miterlimit="10" stroke-linecap="round" stroke-linejoin="round"/>
<path d="M8.66552 4.2724C8.67972 2.21006 7.01937 0.5267 4.95703 0.512507C2.89469 0.498314 1.21132 2.15866 1.19713 4.221C1.18294 6.28334 2.84329 7.96671 4.90563 7.9809C6.96797 7.99509 8.65133 6.33474 8.66552 4.2724Z" stroke="#F0C932" stroke-width="0.549146" stroke-miterlimit="10" stroke-linecap="round" stroke-linejoin="round"/>
<path d="M4.42208 7.94366L3.49402 10.2775L2.31885 8.93212L0.545105 9.09687L1.72028 6.15344" stroke="#F0C932" stroke-width="0.549146" stroke-miterlimit="10" stroke-linecap="round" stroke-linejoin="round"/>
<path d="M5.43254 7.94366L6.36609 10.2775L7.53577 8.93212L9.31501 9.09687L8.13434 6.15344" stroke="#F0C932" stroke-width="0.549146" stroke-miterlimit="10" stroke-linecap="round" stroke-linejoin="round"/>
</svg>
